{
    "asset" : {
        "generator" : "Khronos glTF Blender I/O v1.4.40",
        "version" : "2.0"
    },
    "scene" : 0,
    "scenes" : [
        {
            "name" : "Scene",
            "nodes" : [
                0,
                1,
                2,
                3,
                4
            ]
        }
    ],
    "nodes" : [
        {
            "name" : "Light",
            "rotation" : [
                0.16907575726509094,
                0.7558803558349609,
                -0.27217137813568115,
                0.570947527885437
            ],
            "translation" : [
                4.076245307922363,
                5.903861999511719,
                -1.0054539442062378
            ]
        },
        {
            "name" : "Camera",
            "rotation" : [
                0.483536034822464,
                0.33687159419059753,
                -0.20870360732078552,
                0.7804827094078064
            ],
            "translation" : [
                7.358891487121582,
                4.958309173583984,
                6.925790786743164
            ]
        },
        {
            "mesh" : 0,
            "name" : "Laptop",
            "rotation" : [
                0,
                0,
                -0.7103022933006287,
                0.7038967609405518
            ],
            "scale" : [
                0.025577394291758537,
                0.5446023941040039,
                0.9744271039962769
            ],
            "translation" : [
                -0.3028636574745178,
                -0.20759043097496033,
                -0.11079920828342438
            ]
        },
        {
            "mesh" : 1,
            "name" : "Screen",
            "scale" : [
                0.00819194596260786,
                0.46932265162467957,
                0.9491114020347595
            ],
            "translation" : [
                -0.8179272413253784,
                0.365002304315567,
                -0.11097060143947601
            ]
        },
        {
            "mesh" : 2,
            "name" : "Key",
            "rotation" : [
                0,
                0,
                -0.7071068286895752,
                0.7071068286895752
            ],
            "scale" : [
                0.0006917967111803591,
                0.060838256031274796,
                0.07601483911275864
            ],
            "translation" : [
                -0.7282099723815918,
                -0.16268545389175415,
                0.7082050442695618
            ]
        }
    ],
    "materials" : [
        {
            "doubleSided" : true,
            "name" : "Gray_Metal",
            "pbrMetallicRoughness" : {
                "baseColorFactor" : [
                    0.1491529643535614,
                    0.1491529643535614,
                    0.1491529643535614,
                    1
                ],
                "metallicFactor" : 0,
                "roughnessFactor" : 0.5
            }
        },
        {
            "doubleSided" : true,
            "name" : "Black_Metal.001",
            "pbrMetallicRoughness" : {
                "baseColorFactor" : [
                    0,
                    0,
                    0,
                    1
                ],
                "metallicFactor" : 0
            }
        },
        {
            "doubleSided" : true,
            "name" : "Keys",
            "pbrMetallicRoughness" : {
                "baseColorFactor" : [
                    0,
                    0,
                    0,
                    1
                ],
                "metallicFactor" : 0
            }
        },
        {
            "doubleSided" : true,
            "name" : "Keys.001",
            "pbrMetallicRoughness" : {
                "baseColorFactor" : [
                    0,
                    0,
                    0,
                    1
                ],
                "metallicFactor" : 0
            }
        }
    ],
    "meshes" : [
        {
            "name" : "Cube.002",
            "primitives" : [
                {
                    "attributes" : {
                        "POSITION" : 0,
                        "NORMAL" : 1,
                        "TEXCOORD_0" : 2
                    },
                    "indices" : 3,
                    "material" : 0
                }
            ]
        },
        {
            "name" : "Cube.003",
            "primitives" : [
                {
                    "attributes" : {
                        "POSITION" : 4,
                        "NORMAL" : 5,
                        "TEXCOORD_0" : 6
                    },
                    "indices" : 7,
                    "material" : 1
                }
            ]
        },
        {
            "name" : "Cube.001",
            "primitives" : [
                {
                    "attributes" : {
                        "POSITION" : 8,
                        "NORMAL" : 9,
                        "TEXCOORD_0" : 10
                    },
                    "indices" : 11,
                    "material" : 2
                },
                {
                    "attributes" : {
                        "POSITION" : 12,
                        "NORMAL" : 13,
                        "TEXCOORD_0" : 14
                    },
                    "indices" : 7,
                    "material" : 3
                }
            ]
        }
    ],
    "accessors" : [
        {
            "bufferView" : 0,
            "componentType" : 5126,
            "count" : 768,
            "max" : [
                1,
                1,
                1.0033667087554932
            ],
            "min" : [
                -42.157657623291016,
                -1.0637214183807373,
                -1
            ],
            "type" : "VEC3"
        },
        {
            "bufferView" : 1,
            "componentType" : 5126,
            "count" : 768,
            "type" : "VEC3"
        },
        {
            "bufferView" : 2,
            "componentType" : 5126,
            "count" : 768,
            "type" : "VEC2"
        },
        {
            "bufferView" : 3,
            "componentType" : 5123,
            "count" : 1512,
            "type" : "SCALAR"
        },
        {
            "bufferView" : 4,
            "componentType" : 5126,
            "count" : 384,
            "max" : [
                1,
                1,
                1
            ],
            "min" : [
                -1,
                -1,
                -1
            ],
            "type" : "VEC3"
        },
        {
            "bufferView" : 5,
            "componentType" : 5126,
            "count" : 384,
            "type" : "VEC3"
        },
        {
            "bufferView" : 6,
            "componentType" : 5126,
            "count" : 384,
            "type" : "VEC2"
        },
        {
            "bufferView" : 7,
            "componentType" : 5123,
            "count" : 756,
            "type" : "SCALAR"
        },
        {
            "bufferView" : 8,
            "componentType" : 5126,
            "count" : 17280,
            "max" : [
                23.98698616027832,
                11.201949119567871,
                1.1197052001953125
            ],
            "min" : [
                -1,
                -1.205606460571289,
                -22.608760833740234
            ],
            "type" : "VEC3"
        },
        {
            "bufferView" : 9,
            "componentType" : 5126,
            "count" : 17280,
            "type" : "VEC3"
        },
        {
            "bufferView" : 10,
            "componentType" : 5126,
            "count" : 17280,
            "type" : "VEC2"
        },
        {
            "bufferView" : 11,
            "componentType" : 5123,
            "count" : 34020,
            "type" : "SCALAR"
        },
        {
            "bufferView" : 12,
            "componentType" : 5126,
            "count" : 384,
            "max" : [
                17.215784072875977,
                15.463091850280762,
                -7.548689365386963
            ],
            "min" : [
                14.944421768188477,
                11.511078834533691,
                -13.971664428710938
            ],
            "type" : "VEC3"
        },
        {
            "bufferView" : 13,
            "componentType" : 5126,
            "count" : 384,
            "type" : "VEC3"
        },
        {
            "bufferView" : 14,
            "componentType" : 5126,
            "count" : 384,
            "type" : "VEC2"
        }
    ],
    "bufferViews" : [
        {
            "buffer" : 0,
            "byteLength" : 9216,
            "byteOffset" : 0
        },
        {
            "buffer" : 0,
            "byteLength" : 9216,
            "byteOffset" : 9216
        },
        {
            "buffer" : 0,
            "byteLength" : 6144,
            "byteOffset" : 18432
        },
        {
            "buffer" : 0,
            "byteLength" : 3024,
            "byteOffset" : 24576
        },
        {
            "buffer" : 0,
            "byteLength" : 4608,
            "byteOffset" : 27600
        },
        {
            "buffer" : 0,
            "byteLength" : 4608,
            "byteOffset" : 32208
        },
        {
            "buffer" : 0,
            "byteLength" : 3072,
            "byteOffset" : 36816
        },
        {
            "buffer" : 0,
            "byteLength" : 1512,
            "byteOffset" : 39888
        },
        {
            "buffer" : 0,
            "byteLength" : 207360,
            "byteOffset" : 41400
        },
        {
            "buffer" : 0,
            "byteLength" : 207360,
            "byteOffset" : 248760
        },
        {
            "buffer" : 0,
            "byteLength" : 138240,
            "byteOffset" : 456120
        },
        {
            "buffer" : 0,
            "byteLength" : 68040,
            "byteOffset" : 594360
        },
        {
            "buffer" : 0,
            "byteLength" : 4608,
            "byteOffset" : 662400
        },
        {
            "buffer" : 0,
            "byteLength" : 4608,
            "byteOffset" : 667008
        },
        {
            "buffer" : 0,
            "byteLength" : 3072,
            "byteOffset" : 671616
        }
    ],
    "buffers" : [
        {
            "byteLength" : 674688,
            "uri" : "data:application/octet-stream;base64,"
        }
    ]
}
